<svg xmlns="http://www.w3.org/2000/svg" viewBox="0 0 249.99998 249.99998" height="266.667" width="266.667"><path d="M250 125a125 125 0 0 1-125 125A125 125 0 0 1 0 125 125 125 0 0 1 125 0a125 125 0 0 1 125 125z" fill="#fe9cc1"/><path d="M154.846 30.877c-.14.008-.32.03-.55.06-8.275 1.07-14.964 5.414-19.984 12.976-.755 1.138-1.526 2.392-1.713 2.79-.33.695-.37.716-1.1.612-1.91-.273-5.79-.335-7.27-.118-6.23.91-11.9 4.8-15.097 10.35-1.794 3.12-2.55 5.79-2.693 9.516-.246 10.433 8.845 12.055 20.315 12.554 6.962-.14 21.508-1.483 21.514-12.554-.08-2.04-.218-3.062-.596-4.43-1.63-5.897-5.355-10.53-10.674-13.277-1.586-.82-1.733-.86-1.954-.56-.41.563-1.802 3.856-2.625 6.212-.69 1.974-.842 2.263-1.232 2.306-.245.027-.57-.035-.727-.136-.24-.158-.18-.477.44-2.326 1.515-4.486 4.49-9.81 7.348-13.13 4.04-4.7 9.68-7.807 15.39-8.476l1.83-.215.12-.633c.067-.353.025-.848-.095-1.11-.15-.334-.23-.428-.65-.405zM109.426 52.1l-.624.26-23.378 9.6a18074.82 18074.82 0 0 0-23.95 9.848c-.658.276-1.4.74-1.647 1.033l-.45.538v30.793c0 34.568-.1 32.09 1.377 33.558.733.73 2.89 1.65 31.672 13.538 16.985 7.015 31.116 12.83 31.404 12.923 1.39.446 1.413.437 33.53-12.828 29.042-11.994 31.17-12.904 31.908-13.64 1.483-1.47 1.386.98 1.33-33.36-.05-28.814-.07-30.58-.384-31.152-.183-.336-.65-.77-1.034-.963-.505-.255-39.52-16.37-41.366-17.088-.128-.05.225.83.784 1.95 1.917 3.85 2.506 6.72 2.483 10.853-.02 4.035-1.29 6.524-3.25 8.376-5.02 4.66-12.31 5.875-20.553 5.85-8.243-.03-12.915-.52-18.748-4.278-5.835-3.76-5.13-11.966-4.698-14.19.797-4.114 2.32-7.368 5.204-11.105l.396-.514zm15.173 3.396c.32.048.703.25 1.11.61.39.346 1.4 1.096 2.245 1.67 1.633 1.103 2.68 1.442 6.546 2.128.93.165 1.883.423 2.116.574.465.3.556.862.19 1.167-.33.273-2.678.418-3.844.236-2.904-.45-6.458-2.09-8.192-3.77-.843-.82-1.082-1.17-1.082-1.61 0-.733.367-1.08.906-1zm-55.73 27.72c1.545 3.115 3.15 5.27 5.608 6.947 4.375 2.994 10.41 1.05 15.173 3.03 3.65 1.516 6.198 5.082 9.845 6.6 4.114 1.712 8.837 1.36 13.11 2.628 4.614 1.378 8.6 5.46 13.412 5.36 4.452-.095 7.882-4.334 12.185-5.486 3.517-.943 7.41.04 10.87-1.095 3.663-1.205 6.483-4.217 9.953-5.898 2.942-1.426 5.07-2.91 9.154-3.526 6.147-.926 8.766-1.83 11.684-4.027l1.363-1.03v5.17l-27.88 11.506c-15.335 6.33-28.007 11.55-28.163 11.6-.207.07-56.086-22.84-56.372-23.113-.027-.025-.027-1.984 0-4.353l.053-4.307zm.132 18.942a.182.182 0 0 1 .102.007c.18.05 12.557 5.155 27.503 11.342 26.41 10.932 27.21 11.248 28.396 11.248 1.187 0 1.984-.316 28.396-11.25 14.944-6.187 27.32-11.29 27.502-11.34.307-.087.33.225.33 4.686v4.78l-27.88 11.51c-15.336 6.33-28.008 11.55-28.164 11.6-.154.05-12.91-5.124-28.347-11.504l-28.07-11.6v-4.78c0-3.902.02-4.63.23-4.69zm0 19.746a.182.182 0 0 1 .102.007c.18.057 12.557 5.16 27.503 11.348 26.41 10.93 27.21 11.248 28.396 11.248 1.187 0 1.984-.314 28.396-11.247 14.944-6.19 27.32-11.293 27.502-11.343.307-.085.33.226.33 4.687v4.78l-27.88 11.507c-15.336 6.328-28.008 11.548-28.164 11.6-.154.05-12.91-5.127-28.347-11.507l-28.07-11.6v-4.78c0-3.903.02-4.63.23-4.693zm26.86 58.385c-3.827 0-7.403 1.41-10.727 4.23a6.905 6.905 0 0 1-1.26-1.01L82.32 182c-.606-.605-1.143-.924-1.613-.96-.67 0-1.008.456-1.008 1.363 0 .503.22 1.26.652 2.266a13.15 13.15 0 0 0 1.863 2.82 26.94 26.94 0 0 0-2.72 4.08c-2.42 4.5-3.628 9.25-3.628 14.253 0 4.063 1.26 7.237 3.776 9.52 2.52 2.284 6.06 3.426 10.63 3.426 3.76 0 7.016-.907 9.77-2.72a10.88 10.88 0 0 0 2.223-1.918 7.34 7.34 0 0 0 1.595 2.422c1.444 1.478 3.34 2.216 5.69 2.216 2.386 0 4.284-.45 5.694-1.36a11.237 11.237 0 0 0 3.424-3.575c.602 3.123 1.795 4.685 3.575 4.685 1.31 0 2.652-.318 4.03-.956a15.45 15.45 0 0 0 3.726-2.417c.807-.712 1.5-1.468 2.09-2.263-.01.453-.02.906-.02 1.355 0 3.254.79 4.883 2.366 4.883 1.343 0 2.668-.52 3.978-1.562.504-.402.79-.906.857-1.51.07-.64.1-1.276.1-1.914l.355-6.904a87.125 87.125 0 0 0 1.713 4.08c2.147 4.802 4.582 7.203 7.302 7.203 2.754.034 5.238-1.058 7.454-3.274.357-.355.674-.713.973-1.073.023.054.046.113.072.166 1.442 2.887 4.163 4.33 8.16 4.33 5.036 0 9-1.36 11.886-4.08 1.176-1.107 2.015-2.232 2.52-3.374.503-1.176.754-2.234.754-3.175 0-.94-.235-1.41-.705-1.41-.303 0-.74.336-1.31 1.008-.57.64-1.31 1.345-2.217 2.118-2.45 2.083-4.985 3.123-7.604 3.123-1.245-.035-2.353-.303-3.327-.807-.974-.505-1.48-1.36-1.512-2.57v-1.258a46.787 46.787 0 0 1 4.08-1.614 29.104 29.104 0 0 0 3.83-1.663c1.14-.634 2.066-1.41 2.77-2.312.74-.94 1.11-2.133 1.11-3.577s-.505-2.62-1.51-3.526c-.976-.907-2.387-1.36-4.234-1.36-1.812 0-3.525.42-5.137 1.26-1.613.805-3.04 1.946-4.283 3.424-1.21 1.478-2.184 3.24-2.92 5.29-.57 1.543-.914 3.046-1.046 4.51-.288.345-.533.654-.86 1.03a16.737 16.737 0 0 1-2.266 2.065c-.84.64-1.78.957-2.82.957-2.15 0-3.68-1.797-4.587-5.39 2.016.034 4.015-.637 5.996-2.014 1.98-1.377 2.97-3.056 2.97-5.037 0-1.984-.57-3.478-1.713-4.485-1.143-1.04-2.788-1.56-4.937-1.56-1.074 0-2.015.15-2.82.453-2.285.84-4.014 2.483-5.19 4.934l.504-4.23a40.924 40.924 0 0 1 1.713-2.518 57.79 57.79 0 0 0 1.56-2.318c.473-.772.84-1.544 1.11-2.316.303-.805.437-1.61.403-2.416 0-.84-.27-1.678-.805-2.518-.537-.873-1.04-1.512-1.51-1.915-.47-.434-.924-.65-1.36-.65-.404 0-.773.1-1.11.3-.335.203-.805.74-1.41 1.614-.57.873-1.392 2.62-2.467 5.24-1.04 2.584-2.116 6.446-3.225 11.584a76.54 76.54 0 0 0-1.2 7.165c-.244.16-.544.43-.917.845-3.357 3.492-5.473 5.238-6.346 5.238-.704 0-1.055-1.393-1.055-4.18s.134-4.953.403-6.498c.905-1.545 1.593-2.872 2.063-3.98 0-.906-.537-1.864-1.61-2.87-1.042-1.042-2.15-1.562-3.326-1.562-.604 0-1.142.487-1.612 1.46-.974-.537-2.233-.805-3.778-.805-1.544 0-3.022.22-4.432.656-1.377.436-2.87 1.344-4.483 2.72-3.048 2.643-4.87 6.067-5.47 10.27a11.856 11.856 0 0 1-2.33 2.273c-2.65 1.947-5.49 2.92-8.514 2.92-4.9 0-7.353-3.07-7.353-9.217 0-4.43 1.193-8.68 3.577-12.744 2.788 1.073 5.475 1.61 8.06 1.61 2.62 0 4.7-.605 6.246-1.813 1.545-1.21 2.318-2.706 2.318-4.486 0-1.174-.202-2.164-.605-2.97-1.14-2.15-3.647-3.224-7.51-3.224zm.053 4.98c1.645 0 2.467.655 2.467 1.965 0 1.107-1.007 1.662-3.022 1.662-2.015 0-3.878-.286-5.59-.857 1.846-1.846 3.895-2.77 6.145-2.77zm23.363 12.443c-.67 2.686-1.007 5.91-1.007 9.67-.3 1.075-.687 1.982-1.157 2.72-1.344 2.15-3.04 3.242-5.088 3.275-1.915 0-2.87-1.293-2.87-3.88 0-3.155 1.006-5.774 3.02-7.856 2.016-2.082 4.383-3.392 7.103-3.93zm48.598.957c1.043 0 1.565.42 1.565 1.26-.033.94-.554 1.78-1.562 2.52-.47.335-1.022.69-1.66 1.06-.605.37-1.26.79-1.966 1.26.672-4.066 1.88-6.097 3.627-6.097zm-21.997.957c1.377 0 2.066.605 2.066 1.814 0 .606-.202 1.178-.605 1.715-1.274 1.68-3.66 2.62-7.15 2.82a17.5 17.5 0 0 1 1.21-2.367c1.61-2.65 3.104-3.98 4.48-3.98z" fill="#4d3829"/></svg>