<svg xmlns="http://www.w3.org/2000/svg" viewBox="0 0 249.99998 249.99998" height="266.667" width="266.667"><path d="M250 125a125 125 0 0 1-125 125A125 125 0 0 1 0 125 125 125 0 0 1 125 0a125 125 0 0 1 125 125z" fill="#fe9cc1"/><path d="M154.846 30.877c-.14.008-.32.03-.55.06-8.275 1.07-14.964 5.414-19.984 12.976-.755 1.138-1.526 2.392-1.713 2.79-.33.695-.37.716-1.1.612-1.91-.273-5.79-.335-7.27-.118-6.23.91-11.9 4.8-15.1 10.35-1.798 3.12-2.55 5.79-2.697 9.516-.247 10.433 8.844 12.055 20.314 12.554 6.962-.14 21.51-1.483 21.514-12.554-.08-2.04-.217-3.062-.595-4.43-1.63-5.897-5.357-10.53-10.676-13.277-1.587-.82-1.734-.86-1.955-.56-.41.563-1.8 3.856-2.624 6.212-.69 1.974-.842 2.263-1.232 2.306-.245.027-.57-.035-.727-.136-.24-.158-.18-.477.44-2.326 1.516-4.486 4.49-9.81 7.35-13.13 4.04-4.7 9.68-7.807 15.39-8.476l1.83-.215.12-.63c.067-.35.025-.85-.095-1.11-.15-.33-.23-.43-.65-.4zM109.426 52.1l-.624.26-23.378 9.6a18074.82 18074.82 0 0 0-23.95 9.848c-.658.276-1.4.74-1.647 1.033l-.45.54v30.798c0 34.568-.1 32.09 1.377 33.558.733.73 2.89 1.65 31.672 13.54 16.985 7.014 31.116 12.83 31.404 12.922 1.39.447 1.413.438 33.53-12.827 29.042-11.994 31.17-12.904 31.908-13.64 1.483-1.47 1.386.98 1.33-33.36-.05-28.814-.07-30.58-.384-31.152-.183-.335-.65-.77-1.034-.962-.505-.254-39.52-16.37-41.366-17.087-.128-.05.225.83.784 1.95 1.917 3.85 2.506 6.72 2.483 10.852-.02 4.036-1.29 6.525-3.25 8.377-5.02 4.66-12.31 5.873-20.55 5.85-8.24-.03-12.91-.52-18.75-4.28-5.83-3.76-5.13-11.966-4.692-14.19.797-4.114 2.32-7.368 5.204-11.105l.396-.512zm15.173 3.396c.32.048.7.25 1.11.61.39.346 1.4 1.096 2.24 1.67 1.63 1.103 2.68 1.442 6.544 2.128.93.165 1.882.423 2.115.574.465.3.556.862.19 1.167-.33.273-2.678.418-3.844.236-2.904-.45-6.458-2.09-8.19-3.77-.845-.82-1.084-1.17-1.084-1.61 0-.73.367-1.08.906-1zm-55.73 27.72c1.54 3.115 3.15 5.27 5.6 6.947 4.376 2.994 10.41 1.05 15.174 3.03 3.65 1.516 6.197 5.082 9.844 6.6 4.114 1.712 8.837 1.36 13.11 2.628 4.614 1.38 8.6 5.46 13.412 5.36 4.452-.09 7.882-4.33 12.185-5.48 3.517-.942 7.41.04 10.87-1.094 3.663-1.204 6.483-4.216 9.953-5.897 2.944-1.427 5.07-2.91 9.156-3.527 6.146-.926 8.765-1.83 11.683-4.027l1.362-1.03v5.17L153.34 103.4c-15.336 6.33-28.008 11.55-28.164 11.6-.207.07-56.086-22.84-56.37-23.112-.028-.025-.028-1.984 0-4.353l.052-4.31zm.13 18.942a.182.182 0 0 1 .1.007c.18.05 12.554 5.155 27.5 11.342 26.41 10.932 27.21 11.248 28.396 11.248 1.187 0 1.984-.316 28.396-11.25 14.944-6.187 27.32-11.29 27.502-11.34.305-.087.33.225.33 4.686v4.78l-27.88 11.51c-15.338 6.33-28.01 11.55-28.166 11.6-.155.05-12.91-5.12-28.348-11.5l-28.07-11.6v-4.78c0-3.9.02-4.63.23-4.69zm0 19.746a.182.182 0 0 1 .1.007c.18.06 12.554 5.16 27.5 11.35 26.41 10.93 27.21 11.25 28.396 11.25 1.187 0 1.984-.31 28.396-11.244 14.944-6.19 27.32-11.292 27.502-11.342.305-.084.33.227.33 4.688v4.78l-27.88 11.508c-15.338 6.33-28.01 11.55-28.166 11.6-.155.05-12.91-5.126-28.348-11.506l-28.07-11.6v-4.78c0-3.903.02-4.63.23-4.693zm26.86 58.385c-3.83 0-7.408 1.41-10.73 4.23a6.905 6.905 0 0 1-1.26-1.01L82.32 182c-.606-.605-1.143-.924-1.613-.96-.67 0-1.008.456-1.008 1.363 0 .503.22 1.26.65 2.266a13.15 13.15 0 0 0 1.86 2.82 26.94 26.94 0 0 0-2.72 4.08c-2.42 4.5-3.63 9.25-3.63 14.25 0 4.06 1.26 7.233 3.776 9.52 2.52 2.28 6.06 3.422 10.63 3.422 3.76 0 7.016-.907 9.77-2.72a10.88 10.88 0 0 0 2.223-1.918 7.34 7.34 0 0 0 1.595 2.42c1.442 1.48 3.34 2.217 5.69 2.217 2.384 0 4.282-.45 5.692-1.36a11.237 11.237 0 0 0 3.424-3.574c.603 3.122 1.796 4.684 3.576 4.684 1.31 0 2.652-.317 4.03-.955a15.45 15.45 0 0 0 3.726-2.417 14.65 14.65 0 0 0 2.09-2.263c-.01.454-.02.907-.02 1.356 0 3.256.79 4.885 2.365 4.885 1.344 0 2.67-.52 3.98-1.564.504-.4.79-.905.857-1.51.07-.64.1-1.275.1-1.913l.355-6.905a87.125 87.125 0 0 0 1.712 4.08c2.147 4.8 4.582 7.203 7.302 7.203 2.754.034 5.238-1.058 7.454-3.274a15.1 15.1 0 0 0 .972-1.073c.023.053.046.112.072.165 1.44 2.888 4.162 4.33 8.16 4.33 5.035 0 9-1.36 11.885-4.08 1.176-1.106 2.015-2.23 2.52-3.373.503-1.176.754-2.234.754-3.175 0-.94-.235-1.41-.705-1.41-.305 0-.74.336-1.31 1.01-.57.64-1.31 1.344-2.22 2.12-2.45 2.08-4.984 3.12-7.603 3.12-1.247-.035-2.355-.303-3.33-.807-.973-.506-1.48-1.36-1.51-2.57v-1.26a46.787 46.787 0 0 1 4.08-1.613 29.104 29.104 0 0 0 3.83-1.662c1.14-.634 2.065-1.41 2.77-2.312.74-.94 1.11-2.133 1.11-3.577s-.506-2.62-1.51-3.525c-.977-.907-2.388-1.36-4.235-1.36-1.812 0-3.525.42-5.137 1.26-1.614.805-3.04 1.946-4.284 3.424-1.21 1.476-2.184 3.24-2.92 5.29-.57 1.54-.914 3.044-1.046 4.51-.288.343-.533.652-.86 1.03a16.737 16.737 0 0 1-2.266 2.063c-.84.64-1.78.957-2.82.957-2.15 0-3.68-1.795-4.588-5.39 2.017.036 4.016-.635 5.997-2.012 1.98-1.376 2.97-3.055 2.97-5.036 0-1.984-.57-3.478-1.714-4.485-1.144-1.04-2.79-1.56-4.938-1.56-1.075 0-2.016.15-2.82.45-2.286.84-4.015 2.48-5.19 4.933l.503-4.23a40.924 40.924 0 0 1 1.713-2.52 57.79 57.79 0 0 0 1.56-2.317c.474-.773.84-1.545 1.11-2.317.304-.807.438-1.61.404-2.418 0-.84-.27-1.676-.804-2.516-.538-.873-1.04-1.512-1.51-1.915-.47-.43-.925-.65-1.36-.65-.405 0-.774.1-1.11.3-.336.206-.806.74-1.41 1.617-.57.874-1.393 2.62-2.468 5.24-1.04 2.585-2.117 6.447-3.226 11.585a76.54 76.54 0 0 0-1.2 7.165c-.245.16-.545.43-.918.844-3.356 3.49-5.472 5.236-6.345 5.236-.703 0-1.054-1.393-1.054-4.18s.134-4.953.403-6.498c.904-1.546 1.592-2.873 2.062-3.98 0-.907-.536-1.865-1.61-2.87-1.04-1.043-2.15-1.563-3.325-1.563-.604 0-1.142.486-1.612 1.46-.973-.538-2.232-.806-3.777-.806-1.544 0-3.022.22-4.432.654-1.376.436-2.87 1.344-4.482 2.72-3.048 2.643-4.87 6.067-5.47 10.27a11.856 11.856 0 0 1-2.33 2.273c-2.65 1.947-5.49 2.92-8.514 2.92-4.9 0-7.35-3.07-7.35-9.217 0-4.43 1.192-8.68 3.576-12.745 2.788 1.073 5.475 1.61 8.06 1.61 2.62 0 4.7-.605 6.246-1.813 1.546-1.21 2.32-2.705 2.32-4.485 0-1.173-.2-2.163-.605-2.97-1.14-2.15-3.646-3.223-7.51-3.223zm.05 4.98c1.643 0 2.465.65 2.465 1.96 0 1.105-1.007 1.66-3.02 1.66-2.017 0-3.88-.286-5.59-.857 1.844-1.847 3.893-2.77 6.143-2.77zm23.36 12.44c-.67 2.682-1.006 5.91-1.006 9.67-.3 1.07-.688 1.98-1.158 2.72-1.345 2.15-3.04 3.24-5.09 3.27-1.914 0-2.87-1.292-2.87-3.88 0-3.154 1.007-5.773 3.02-7.855 2.017-2.08 4.384-3.39 7.104-3.93zm48.6.953c1.043 0 1.565.42 1.565 1.26-.034.94-.555 1.78-1.563 2.52-.47.334-1.022.69-1.66 1.06-.605.37-1.26.79-1.966 1.26.672-4.067 1.88-6.098 3.627-6.098zm-21.997.956c1.377 0 2.066.605 2.066 1.814 0 .606-.2 1.178-.605 1.715-1.275 1.68-3.66 2.62-7.15 2.82a17.5 17.5 0 0 1 1.21-2.367c1.61-2.65 3.103-3.98 4.48-3.98z" fill="#4d3829"/></svg>