<svg xmlns="http://www.w3.org/2000/svg" viewBox="0 0 131.24813 133.44932" height="142.346" width="139.998"><path d="M95.47 0c-.14.008-.32.03-.55.06-8.275 1.07-14.964 5.414-19.984 12.976-.755 1.138-1.526 2.392-1.713 2.79-.33.695-.37.716-1.1.612-1.91-.273-5.79-.335-7.27-.118-6.23.91-11.9 4.8-15.1 10.35-1.798 3.12-2.55 5.79-2.697 9.516C46.81 46.62 55.9 48.24 67.37 48.74c6.962-.14 21.51-1.483 21.514-12.554-.08-2.04-.217-3.062-.595-4.43-1.63-5.897-5.36-10.53-10.678-13.277-1.587-.82-1.734-.86-1.955-.56-.41.56-1.8 3.854-2.624 6.21-.69 1.974-.842 2.263-1.232 2.306-.244.027-.57-.035-.726-.136-.24-.157-.18-.476.44-2.325 1.516-4.486 4.49-9.81 7.35-13.13 4.04-4.7 9.68-7.807 15.39-8.476l1.83-.217.12-.63c.067-.35.025-.85-.095-1.11-.15-.33-.23-.43-.65-.4L95.47 0zM50.05 21.223l-.624.26-23.378 9.6c-7.986 3.277-15.97 6.56-23.95 9.848-.658.278-1.4.74-1.647 1.035l-.45.54v30.798c0 34.568-.1 32.09 1.38 33.558.732.73 2.89 1.65 31.67 13.54 16.986 7.015 31.117 12.83 31.405 12.923 1.39.447 1.413.438 33.53-12.827 29.042-11.994 31.17-12.904 31.908-13.64 1.483-1.47 1.386.98 1.33-33.36-.05-28.814-.07-30.58-.384-31.152-.184-.335-.65-.77-1.035-.962-.505-.253-39.52-16.37-41.366-17.086-.13-.05.224.83.783 1.95 1.917 3.85 2.506 6.72 2.483 10.852-.02 4.036-1.29 6.525-3.25 8.377-5.02 4.66-12.31 5.873-20.55 5.85-8.24-.03-12.91-.52-18.75-4.28-5.83-3.76-5.13-11.966-4.692-14.19.797-4.114 2.32-7.368 5.204-11.105l.396-.512-.013-.013zm15.173 3.396c.32.046.7.25 1.11.61.39.344 1.4 1.094 2.24 1.67 1.63 1.1 2.68 1.44 6.544 2.126.93.165 1.882.423 2.115.574.465.3.556.863.19 1.168-.33.273-2.678.418-3.844.236-2.904-.45-6.458-2.09-8.19-3.77-.845-.82-1.084-1.17-1.084-1.61 0-.73.367-1.08.906-1l.013-.005zM9.493 52.34c1.54 3.114 3.15 5.27 5.6 6.946 4.376 2.994 10.41 1.05 15.174 3.03 3.65 1.516 6.197 5.082 9.844 6.6 4.116 1.712 8.84 1.36 13.11 2.628 4.616 1.38 8.6 5.46 13.414 5.36 4.452-.09 7.882-4.33 12.185-5.48 3.516-.942 7.41.04 10.87-1.094 3.662-1.204 6.482-4.216 9.952-5.897 2.945-1.427 5.07-2.91 9.157-3.527 6.145-.926 8.764-1.83 11.682-4.027l1.362-1.03v5.17L93.964 72.52c-15.336 6.33-28.008 11.55-28.164 11.6-.207.07-56.086-22.84-56.37-23.112-.028-.024-.028-1.983 0-4.352l.052-4.31.01-.01zm.13 18.94a.18.18 0 0 1 .1.008c.18.05 12.554 5.155 27.5 11.342 26.41 10.932 27.21 11.248 28.396 11.248s1.982-.316 28.394-11.25c14.944-6.187 27.32-11.29 27.502-11.34.305-.087.33.225.33 4.686v4.78l-27.88 11.51c-15.338 6.33-28.01 11.55-28.166 11.6-.154.05-12.91-5.12-28.347-11.5l-28.07-11.6v-4.78c0-3.9.02-4.63.23-4.69l.01-.013zm0 19.747a.18.18 0 0 1 .1.007c.18.06 12.554 5.16 27.5 11.35 26.41 10.93 27.21 11.25 28.396 11.25s1.982-.31 28.394-11.244c14.944-6.19 27.32-11.292 27.502-11.342.305-.084.33.227.33 4.688v4.78l-27.88 11.508c-15.338 6.33-28.01 11.55-28.166 11.6-.154.05-12.91-5.126-28.347-11.506l-28.07-11.6v-4.78c0-3.903.02-4.63.23-4.693l.01-.018z" fill="#1c0e3f"/></svg>