<?xml version="1.0" encoding="UTF-8" standalone="no"?>
<svg
   xmlns:dc="http://purl.org/dc/elements/1.1/"
   xmlns:cc="http://creativecommons.org/ns#"
   xmlns:rdf="http://www.w3.org/1999/02/22-rdf-syntax-ns#"
   xmlns:svg="http://www.w3.org/2000/svg"
   xmlns="http://www.w3.org/2000/svg"
   xmlns:xlink="http://www.w3.org/1999/xlink"
   width="10.583333mm"
   height="12.377049mm"
   viewBox="0 0 37.499999 43.855687"
   id="svg2"
   version="1.1">
  <defs
     id="defs4">
    <linearGradient
       id="linearGradient4135">
      <stop
         id="stop4137"
         offset="0"
         style="stop-color:#780a36;stop-opacity:1" />
      <stop
         id="stop4139"
         offset="1"
         style="stop-color:#00bdfa;stop-opacity:1" />
    </linearGradient>
    <linearGradient
       gradientUnits="userSpaceOnUse"
       y2="524.27765"
       x2="494.14243"
       y1="558.65601"
       x1="404.42444"
       id="linearGradient4141"
       xlink:href="#linearGradient4135" />
  </defs>
  <metadata
     id="metadata7">
    <rdf:RDF>
      <cc:Work
         rdf:about="">
        <dc:format>image/svg+xml</dc:format>
        <dc:type
           rdf:resource="http://purl.org/dc/dcmitype/StillImage" />
        <dc:title></dc:title>
      </cc:Work>
    </rdf:RDF>
  </metadata>
  <g
     style="fill-opacity:1;fill:url(#linearGradient4141)"
     id="layer1"
     transform="translate(-399.96455,-527.43675)">
    <path
       style="fill:url(#linearGradient4141);fill-opacity:1"
       d="m 401.89219,571.2352 c -0.72387,-0.1058 -1.43141,-0.62922 -1.7632,-1.30435 l -0.16444,-0.3346 0,-20.27671 0,-20.27672 0.17735,-0.33592 c 0.219,-0.41481 0.76,-0.9303 1.17997,-1.12432 l 0.31567,-0.14583 11.71098,0 11.71097,0 0.77676,0.27139 c 1.55555,0.5435 1.31345,0.33966 6.15131,5.17921 3.1671,3.1682 4.37712,4.42105 4.53921,4.6999 0.32891,0.56582 0.66422,1.37744 0.81437,1.97122 0.13122,0.51888 0.13291,0.74288 0.11585,15.28219 l -0.0173,14.75559 -0.16516,0.3346 c -0.34723,0.70345 -1.03034,1.19367 -1.82311,1.30831 -0.50884,0.0736 -33.05495,0.0697 -33.5592,-0.004 z m 32.4357,-15.6252 0,-12.48055 -5.16956,-10e-4 c -5.57787,-0.001 -5.62674,-0.004 -6.22779,-0.35616 -0.35801,-0.20981 -0.71494,-0.60907 -0.92884,-1.039 l -0.15436,-0.31025 -0.0183,-5.40378 -0.0183,-5.40378 -9.36724,0 -9.36725,0 0,18.73756 0,18.73756 15.62579,0 15.62578,0 0,-12.48056 z m -24.8005,6.02948 -0.22752,-0.22752 0,-1.10574 c 0,-1.08921 0.003,-1.10878 0.1716,-1.30967 0.0944,-0.11217 0.28259,-0.23476 0.41825,-0.27244 0.16233,-0.0451 3.19283,-0.0686 8.86473,-0.0689 9.36027,-4.3e-4 8.90006,-0.0188 9.20482,0.3686 0.13548,0.17224 0.14508,0.25732 0.14508,1.28628 l 0,1.10185 -0.22753,0.22752 -0.22753,0.22753 -8.94718,0 -8.94719,0 -0.22753,-0.22753 z m 0.19506,-6.09396 c -0.36661,-0.15945 -0.42258,-0.36566 -0.42258,-1.55684 0,-1.15841 0.0293,-1.2645 0.40226,-1.45737 0.16868,-0.0872 1.31773,-0.1 8.99998,-0.1 9.67348,0 9.08107,-0.0254 9.30072,0.39933 0.14268,0.27592 0.14583,2.13149 0.004,2.40561 -0.22339,0.43199 0.34086,0.40748 -9.31492,0.4046 -7.31,-0.002 -8.7916,-0.0179 -8.96954,-0.0953 z m -0.19506,-6.42005 -0.22752,-0.22753 0,-1.08381 c 0,-0.89951 0.0193,-1.11653 0.11365,-1.27621 0.24646,-0.41723 -0.2252,-0.39707 9.29209,-0.39707 9.41324,0 8.94886,-0.0185 9.25366,0.36897 0.13548,0.17223 0.14508,0.25732 0.14508,1.28628 l 0,1.10184 -0.22753,0.22753 -0.22753,0.22753 -8.94718,0 -8.94719,0 -0.22753,-0.22753 z m 24.49539,-9.35874 c -0.0255,-0.0828 -0.0909,-0.24091 -0.1452,-0.35133 -0.0543,-0.11042 -1.89498,-2.00227 -4.09036,-4.20411 -3.28905,-3.29873 -4.059,-4.03783 -4.37449,-4.19922 -0.21059,-0.10773 -0.3988,-0.19587 -0.41825,-0.19587 -0.0195,0 -0.0354,2.04775 -0.0354,4.55055 l 0,4.55055 4.55506,0 4.55506,0 -0.0464,-0.15057 z"
       id="cv" />
  </g>
</svg>
