<?xml version="1.0" encoding="UTF-8" standalone="no"?>
<svg
   xmlns:dc="http://purl.org/dc/elements/1.1/"
   xmlns:cc="http://creativecommons.org/ns#"
   xmlns:rdf="http://www.w3.org/1999/02/22-rdf-syntax-ns#"
   xmlns:svg="http://www.w3.org/2000/svg"
   xmlns="http://www.w3.org/2000/svg"
   xmlns:xlink="http://www.w3.org/1999/xlink"
   width="13.225634mm"
   height="10.583502mm"
   viewBox="0 0 46.862481 37.500597"
   id="svg2"
   version="1.1">
  <defs
     id="defs4">
    <linearGradient
       id="linearGradient4157">
      <stop
         id="stop4159"
         offset="0"
         style="stop-color:#780a36;stop-opacity:1" />
      <stop
         id="stop4161"
         offset="1"
         style="stop-color:#ff4000;stop-opacity:1" />
    </linearGradient>
    <linearGradient
       gradientUnits="userSpaceOnUse"
       y2="583.21997"
       x2="-659.81628"
       y1="555.80865"
       x1="-617.66388"
       id="linearGradient4163"
       xlink:href="#linearGradient4157" />
  </defs>
  <metadata
     id="metadata7">
    <rdf:RDF>
      <cc:Work
         rdf:about="">
        <dc:format>image/svg+xml</dc:format>
        <dc:type
           rdf:resource="http://purl.org/dc/dcmitype/StillImage" />
        <dc:title></dc:title>
      </cc:Work>
    </rdf:RDF>
  </metadata>
  <g
     style="fill:url(#linearGradient4163);fill-opacity:1"
     id="layer1"
     transform="translate(656.40424,-547.31644)">
    <path
       style="fill:url(#linearGradient4163);fill-opacity:1"
       d="m -653.19035,584.76706 c -1.15424,-0.1936 -2.27949,-1.05151 -2.81852,-2.14889 -0.43054,-0.87649 -0.40661,0.16371 -0.38634,-16.78945 0.0204,-17.07853 -0.023,-15.50287 0.45323,-16.44764 0.29539,-0.58595 1.08831,-1.3715 1.66661,-1.65107 0.92419,-0.44678 -0.81801,-0.41299 21.29903,-0.41299 22.10635,0 20.3791,-0.0334 21.29106,0.41053 0.63144,0.30731 1.33103,1.00176 1.67475,1.66243 0.50232,0.96551 0.46735,-0.28006 0.46864,16.69489 10e-4,15.03866 -8e-4,15.27017 -0.13219,15.7839 -0.32827,1.28357 -1.2524,2.28684 -2.53888,2.75634 l -0.49926,0.1822 -20.06381,0.009 c -11.29995,0.005 -20.21692,-0.0164 -20.41432,-0.0495 z m 40.04632,-3.23251 c 0.42979,-0.22226 0.39843,0.99839 0.39843,-15.51014 l 0,-15.01713 -0.14475,-0.18402 c -0.31014,-0.39428 1.11642,-0.36814 -20.08599,-0.36814 -21.20239,0 -19.77585,-0.0261 -20.08599,0.36814 l -0.14475,0.18402 0.003,15.03051 c 0.002,12.09623 0.0191,15.06062 0.088,15.18477 0.0471,0.0848 0.17372,0.21233 0.2814,0.28332 0.19243,0.12684 0.53467,0.12908 19.84565,0.12952 17.43395,4.2e-4 19.67192,-0.0113 19.84568,-0.10085 z m -36.99172,-5.35722 0,-2.38718 3.90597,-3.90555 3.90597,-3.90554 1.95281,1.9528 1.95279,1.95279 6.22624,-6.22599 6.22625,-6.22597 5.0744,5.07406 5.07439,5.07406 0,5.49184 0,5.49185 -17.15941,0 -17.15941,0 0,-2.38717 z m 3.50533,-13.34407 c -0.22033,-0.053 -0.65599,-0.22224 -0.96813,-0.37608 -0.45221,-0.22286 -0.68287,-0.3955 -1.13506,-0.84951 -0.98228,-0.98622 -1.33895,-1.78754 -1.38797,-3.11838 -0.0355,-0.96198 0.0741,-1.56269 0.4129,-2.26552 0.60021,-1.24487 1.7146,-2.17339 3.04488,-2.53702 0.5888,-0.16095 1.81067,-0.16326 2.40153,-0.005 1.64863,0.44286 2.94348,1.7388 3.38011,3.38295 0.15599,0.58735 0.15946,1.75612 0.008,2.33687 -0.43947,1.67342 -1.74053,2.99316 -3.35885,3.40705 -0.62086,0.15879 -1.78781,0.17056 -2.39635,0.0241 z"
       id="pf" />
  </g>
</svg>
